<?xml version="1.0" encoding="UTF-8" standalone="no"?>
<!DOCTYPE svg PUBLIC "-//W3C//DTD SVG 1.1//EN" "http://www.w3.org/Graphics/SVG/1.1/DTD/svg11.dtd">
<svg width="100%" height="100%" viewBox="0 0 834 285" version="1.1" xmlns="http://www.w3.org/2000/svg" xmlns:xlink="http://www.w3.org/1999/xlink" xml:space="preserve" xmlns:serif="http://www.serif.com/" style="fill-rule:evenodd;clip-rule:evenodd;stroke-linejoin:round;stroke-miterlimit:2;">
    <g transform="matrix(1,0,0,1,-675.532,-289.552)">
        <g id="Logo-Letras" transform="matrix(1,0,0,1,652.421,-426.881)">
            <rect x="23.111" y="716.433" width="833.961" height="284.353" style="fill:none;"/>
            <g transform="matrix(1,0,0,1,9.26496,0.526538)">
                <g>
                    <g id="Texto" transform="matrix(2.62727,0,0,2.62727,-690.319,110.132)">
                        <g transform="matrix(50,0,0,50,376.935,298.387)">
                            <rect x="0.086" y="-0.693" width="0.097" height="0.693" style="fill:white;fill-rule:nonzero;"/>
                        </g>
                        <g transform="matrix(50,0,0,50,390.385,298.387)">
                            <path d="M0.406,-0.052C0.398,-0.047 0.383,-0.04 0.36,-0.032C0.337,-0.023 0.31,-0.019 0.279,-0.019C0.248,-0.019 0.218,-0.024 0.191,-0.034C0.163,-0.044 0.139,-0.059 0.118,-0.081C0.097,-0.102 0.081,-0.128 0.069,-0.159C0.057,-0.19 0.051,-0.228 0.051,-0.271C0.051,-0.309 0.057,-0.344 0.068,-0.376C0.079,-0.407 0.096,-0.435 0.117,-0.458C0.139,-0.481 0.166,-0.499 0.197,-0.511C0.228,-0.525 0.264,-0.531 0.303,-0.531C0.346,-0.531 0.384,-0.528 0.417,-0.522C0.449,-0.515 0.476,-0.509 0.498,-0.504L0.498,-0.04C0.498,0.04 0.477,0.098 0.436,0.134C0.395,0.17 0.332,0.188 0.248,0.188C0.215,0.188 0.185,0.185 0.156,0.18C0.127,0.175 0.101,0.168 0.08,0.161L0.097,0.08C0.116,0.087 0.139,0.094 0.166,0.099C0.193,0.105 0.221,0.108 0.25,0.108C0.305,0.108 0.345,0.097 0.37,0.075C0.394,0.053 0.406,0.018 0.406,-0.03L0.406,-0.052ZM0.405,-0.438C0.396,-0.441 0.383,-0.443 0.368,-0.446C0.352,-0.448 0.331,-0.449 0.304,-0.449C0.254,-0.449 0.216,-0.433 0.189,-0.4C0.162,-0.367 0.148,-0.324 0.148,-0.27C0.148,-0.24 0.152,-0.214 0.16,-0.193C0.167,-0.172 0.178,-0.154 0.191,-0.14C0.203,-0.126 0.219,-0.116 0.235,-0.109C0.253,-0.102 0.27,-0.099 0.288,-0.099C0.313,-0.099 0.335,-0.102 0.356,-0.11C0.377,-0.117 0.393,-0.125 0.405,-0.134L0.405,-0.438Z" style="fill:white;fill-rule:nonzero;"/>
                        </g>
                        <g transform="matrix(50,0,0,50,419.285,298.387)">
                            <path d="M0.08,-0.505C0.101,-0.51 0.13,-0.516 0.165,-0.522C0.2,-0.528 0.241,-0.531 0.287,-0.531C0.328,-0.531 0.363,-0.525 0.39,-0.514C0.417,-0.502 0.439,-0.486 0.456,-0.465C0.472,-0.444 0.483,-0.418 0.49,-0.389C0.497,-0.36 0.5,-0.327 0.5,-0.292L0.5,-0L0.407,-0L0.407,-0.272C0.407,-0.304 0.405,-0.331 0.401,-0.354C0.396,-0.377 0.389,-0.395 0.379,-0.409C0.369,-0.423 0.356,-0.433 0.339,-0.44C0.322,-0.446 0.302,-0.449 0.277,-0.449C0.267,-0.449 0.257,-0.449 0.246,-0.448C0.235,-0.447 0.225,-0.447 0.216,-0.446C0.206,-0.445 0.197,-0.443 0.19,-0.442C0.182,-0.441 0.176,-0.44 0.173,-0.439L0.173,-0L0.08,-0L0.08,-0.505Z" style="fill:white;fill-rule:nonzero;"/>
                        </g>
                        <g transform="matrix(50,0,0,50,447.985,298.387)">
                            <path d="M0.173,-0L0.08,-0L0.08,-0.52L0.173,-0.52L0.173,-0ZM0.126,-0.614C0.109,-0.614 0.095,-0.62 0.084,-0.63C0.072,-0.642 0.066,-0.656 0.066,-0.675C0.066,-0.694 0.072,-0.709 0.084,-0.72C0.095,-0.731 0.109,-0.736 0.126,-0.736C0.143,-0.736 0.157,-0.731 0.169,-0.72C0.18,-0.709 0.186,-0.694 0.186,-0.675C0.186,-0.656 0.18,-0.642 0.169,-0.63C0.157,-0.62 0.143,-0.614 0.126,-0.614Z" style="fill:white;fill-rule:nonzero;"/>
                        </g>
                        <g transform="matrix(50,0,0,50,460.635,298.387)">
                            <path d="M0.503,-0.084L0.503,-0L0.086,-0L0.086,-0.693L0.183,-0.693L0.183,-0.084L0.503,-0.084Z" style="fill:rgb(239,77,70);fill-rule:nonzero;"/>
                        </g>
                        <g transform="matrix(50,0,0,50,485.585,298.387)">
                            <path d="M0.019,0.097C0.026,0.1 0.036,0.103 0.048,0.106C0.059,0.109 0.071,0.111 0.082,0.111C0.119,0.111 0.147,0.103 0.168,0.086C0.189,0.07 0.207,0.044 0.224,0.007C0.182,-0.073 0.143,-0.158 0.107,-0.248C0.07,-0.337 0.04,-0.428 0.016,-0.52L0.116,-0.52C0.123,-0.49 0.132,-0.458 0.142,-0.423C0.153,-0.388 0.164,-0.353 0.177,-0.316C0.19,-0.279 0.203,-0.243 0.218,-0.206C0.233,-0.169 0.248,-0.134 0.264,-0.1C0.289,-0.17 0.311,-0.239 0.33,-0.308C0.349,-0.377 0.366,-0.447 0.383,-0.52L0.479,-0.52C0.455,-0.422 0.428,-0.328 0.399,-0.237C0.37,-0.147 0.338,-0.063 0.304,0.016C0.291,0.046 0.277,0.072 0.263,0.093C0.248,0.115 0.232,0.133 0.215,0.147C0.198,0.161 0.178,0.171 0.157,0.178C0.135,0.185 0.11,0.188 0.083,0.188C0.076,0.188 0.068,0.187 0.06,0.186C0.052,0.185 0.044,0.184 0.037,0.182C0.029,0.181 0.022,0.179 0.016,0.177C0.009,0.175 0.005,0.173 0.002,0.172L0.019,0.097Z" style="fill:rgb(239,77,70);fill-rule:nonzero;"/>
                        </g>
                        <g transform="matrix(50,0,0,50,510.435,298.387)">
                            <path d="M0.167,-0.52L0.364,-0.52L0.364,-0.442L0.167,-0.442L0.167,-0.202C0.167,-0.176 0.169,-0.155 0.173,-0.138C0.177,-0.121 0.183,-0.107 0.191,-0.098C0.199,-0.088 0.209,-0.081 0.221,-0.077C0.233,-0.073 0.247,-0.071 0.263,-0.071C0.291,-0.071 0.314,-0.074 0.331,-0.081C0.347,-0.087 0.359,-0.091 0.366,-0.094L0.384,-0.017C0.375,-0.012 0.358,-0.007 0.335,0C0.312,0.007 0.285,0.011 0.255,0.011C0.22,0.011 0.191,0.006 0.168,-0.003C0.145,-0.012 0.126,-0.025 0.112,-0.043C0.098,-0.061 0.088,-0.083 0.083,-0.11C0.077,-0.136 0.074,-0.166 0.074,-0.201L0.074,-0.665L0.167,-0.681L0.167,-0.52Z" style="fill:rgb(239,77,70);fill-rule:nonzero;"/>
                        </g>
                        <g transform="matrix(50,0,0,50,530.535,298.387)">
                            <path d="M0.173,-0L0.08,-0L0.08,-0.52L0.173,-0.52L0.173,-0ZM0.126,-0.614C0.109,-0.614 0.095,-0.62 0.084,-0.63C0.072,-0.642 0.066,-0.656 0.066,-0.675C0.066,-0.694 0.072,-0.709 0.084,-0.72C0.095,-0.731 0.109,-0.736 0.126,-0.736C0.143,-0.736 0.157,-0.731 0.169,-0.72C0.18,-0.709 0.186,-0.694 0.186,-0.675C0.186,-0.656 0.18,-0.642 0.169,-0.63C0.157,-0.62 0.143,-0.614 0.126,-0.614Z" style="fill:rgb(239,77,70);fill-rule:nonzero;"/>
                        </g>
                        <g transform="matrix(50,0,0,50,543.185,298.387)">
                            <path d="M0.306,0.012C0.264,0.012 0.227,0.005 0.196,-0.008C0.164,-0.021 0.137,-0.04 0.116,-0.064C0.094,-0.088 0.078,-0.117 0.067,-0.15C0.056,-0.183 0.051,-0.219 0.051,-0.259C0.051,-0.299 0.057,-0.336 0.069,-0.369C0.08,-0.402 0.097,-0.431 0.118,-0.456C0.139,-0.48 0.166,-0.499 0.197,-0.513C0.228,-0.526 0.262,-0.533 0.3,-0.533C0.323,-0.533 0.347,-0.531 0.37,-0.527C0.393,-0.523 0.416,-0.517 0.437,-0.508L0.416,-0.429C0.402,-0.436 0.386,-0.441 0.368,-0.445C0.349,-0.449 0.33,-0.451 0.309,-0.451C0.257,-0.451 0.217,-0.435 0.19,-0.402C0.162,-0.369 0.148,-0.322 0.148,-0.259C0.148,-0.231 0.151,-0.205 0.158,-0.182C0.164,-0.159 0.174,-0.139 0.188,-0.122C0.201,-0.105 0.219,-0.093 0.24,-0.084C0.261,-0.075 0.287,-0.07 0.318,-0.07C0.343,-0.07 0.365,-0.072 0.385,-0.077C0.405,-0.082 0.421,-0.087 0.432,-0.092L0.445,-0.014C0.44,-0.011 0.432,-0.008 0.422,-0.005C0.412,-0.002 0.401,0.001 0.388,0.003C0.375,0.006 0.362,0.008 0.347,0.009C0.333,0.011 0.319,0.012 0.306,0.012Z" style="fill:rgb(239,77,70);fill-rule:nonzero;"/>
                        </g>
                    </g>
                    <g id="Logo" transform="matrix(0.489891,0,0,0.489891,42.7907,736.172)">
                        <g transform="matrix(0.564376,0.825518,-0.825518,0.564376,321.709,-98.208)">
                            <g transform="matrix(1,0,0,1,-6.04418,-19.0481)">
                                <path d="M256.044,60.878C141.075,60.878 47.874,154.079 47.874,269.048C47.874,384.017 141.075,477.218 256.044,477.218L256.044,456.401C152.572,456.401 68.691,372.52 68.691,269.048C68.691,165.576 152.572,81.695 256.044,81.695L256.044,60.878Z" style="fill:rgb(55,124,224);"/>
                            </g>
                            <g transform="matrix(-1,0,0,1,505.044,-19.0481)">
                                <path d="M256.044,60.878C141.075,60.878 47.874,154.079 47.874,269.048C47.874,384.017 141.075,477.218 256.044,477.218L256.044,456.401C152.572,456.401 68.691,372.52 68.691,269.048C68.691,165.576 152.572,81.695 256.044,81.695L256.044,60.878Z" style="fill:rgb(255,193,89);"/>
                            </g>
                        </g>
                        <g transform="matrix(1,0,0,1,-8,5)">
                            <path d="M442.408,112.471C442.403,109.466 439.965,107.032 436.96,107.032C420.59,107.032 372.52,107.032 366.299,107.032C365.859,107.032 365.42,107.075 364.988,107.161C360.573,108.163 334.469,115.106 320.006,142.758C314.369,153.38 311.636,165.303 312.085,177.32C312.723,196.899 314.455,243.321 314.455,243.321C315.04,282.904 260.843,303.263 238.25,254.954C233.654,215.649 246.093,188.682 268.082,170.14C179.291,252.909 295.566,405.693 404.191,324.215C420.365,312.084 438.63,285.487 442.644,259.83C442.644,259.83 442.451,139.692 442.408,112.471Z" style="fill:url(#_Radial1);"/>
                            <path d="M238.337,256.063C250.015,313.693 295.374,348.603 343.137,347.361C387.873,346.199 437.101,310.005 443.048,253.215C426.213,330.958 312.158,344.12 286.36,281.564C267.339,286.539 251.859,278.411 238.337,256.063Z" style="fill:rgb(17,49,122);"/>
                            <path d="M442.595,255.834L442.706,161.851C370.952,165.73 322.55,186.843 314.411,240.094C316.339,258.374 306.329,272.832 286.058,281.473C306.13,335.371 415.533,341.536 442.595,255.834Z" style="fill:url(#_Radial2);"/>
                            <path d="M182.408,259.607C179.643,218.616 184.217,188.342 206.459,163.26C235.513,130.498 292.222,109.553 287.549,75.88L227.575,106.128C227.575,106.128 187.94,84.746 153.52,111.343C153.52,111.343 119.1,90.783 85.991,111.61L116.43,145.788C116.43,145.788 77.713,199.725 86.525,241.379C86.525,241.379 112.492,173.446 158.084,157.536C152.551,198.325 156.611,230.211 182.408,259.607Z" style="fill:rgb(58,191,237);"/>
                            <g transform="matrix(1,0,0,1,-1,0)">
                                <path d="M136.99,126.296C136.99,126.296 117.514,106.604 86.807,111.677L117.369,145.756L136.99,126.296Z" style="fill:url(#_Linear3);"/>
                            </g>
                            <path d="M86.776,241.721L106.15,231.383C133.84,377.187 254.628,391.533 335.783,350.204C230.288,341.197 208.085,218.249 265.024,172.973C291.943,144.674 308.594,114.283 287.386,76.18C287.827,75.476 290.245,89.691 273.397,107.656C260.861,121.023 239.619,133.795 223.705,146.712C209.612,158.149 200.216,170.277 197.116,174.56C176.251,203.388 181.991,259.669 181.8,259.433C142.608,211.02 159.81,156.419 158.145,157.083C123.148,171.036 99.167,201.714 86.776,241.721Z" style="fill:url(#_Linear4);"/>
                            <path d="M106.98,232.343C107.351,467.085 416.639,464.901 442.945,258.952C401.502,420.41 174.709,322.786 259.49,177.382C209.119,228.352 236.373,343.792 335.69,350.286C216.197,404.149 126.871,342.216 106.98,232.343Z" style="fill:url(#_Linear5);"/>
                        </g>
                    </g>
                </g>
            </g>
        </g>
    </g>
    <defs>
        <radialGradient id="_Radial1" cx="0" cy="0" r="1" gradientUnits="userSpaceOnUse" gradientTransform="matrix(206.029,0,0,240.393,236.614,227.228)"><stop offset="0" style="stop-color:rgb(58,191,237);stop-opacity:1"/><stop offset="0.56" style="stop-color:rgb(17,122,189);stop-opacity:1"/><stop offset="1" style="stop-color:rgb(0,92,168);stop-opacity:1"/></radialGradient>
        <radialGradient id="_Radial2" cx="0" cy="0" r="1" gradientUnits="userSpaceOnUse" gradientTransform="matrix(156.648,0,0,159.409,286.058,241.556)"><stop offset="0" style="stop-color:rgb(13,59,132);stop-opacity:1"/><stop offset="0.28" style="stop-color:rgb(33,116,178);stop-opacity:1"/><stop offset="0.48" style="stop-color:rgb(42,143,199);stop-opacity:1"/><stop offset="0.72" style="stop-color:rgb(47,157,210);stop-opacity:1"/><stop offset="1" style="stop-color:rgb(58,191,237);stop-opacity:1"/></radialGradient>
        <linearGradient id="_Linear3" x1="0" y1="0" x2="1" y2="0" gradientUnits="userSpaceOnUse" gradientTransform="matrix(50.9997,0,0,34.7634,85.9906,128.673)"><stop offset="0" style="stop-color:rgb(58,191,237);stop-opacity:1"/><stop offset="0.51" style="stop-color:rgb(28,85,152);stop-opacity:1"/><stop offset="1" style="stop-color:rgb(17,49,122);stop-opacity:1"/></linearGradient>
        <linearGradient id="_Linear4" x1="0" y1="0" x2="1" y2="0" gradientUnits="userSpaceOnUse" gradientTransform="matrix(249.007,0,0,294.178,86.7756,223.244)"><stop offset="0" style="stop-color:rgb(17,49,122);stop-opacity:1"/><stop offset="0.29" style="stop-color:rgb(8,71,145);stop-opacity:1"/><stop offset="0.62" style="stop-color:rgb(2,87,163);stop-opacity:1"/><stop offset="1" style="stop-color:rgb(0,92,168);stop-opacity:1"/></linearGradient>
        <linearGradient id="_Linear5" x1="0" y1="0" x2="1" y2="0" gradientUnits="userSpaceOnUse" gradientTransform="matrix(335.965,0,0,233.651,106.98,294.208)"><stop offset="0" style="stop-color:rgb(58,191,237);stop-opacity:1"/><stop offset="0.18" style="stop-color:rgb(44,142,198);stop-opacity:1"/><stop offset="0.41" style="stop-color:rgb(40,130,188);stop-opacity:1"/><stop offset="0.7" style="stop-color:rgb(34,109,171);stop-opacity:1"/><stop offset="1" style="stop-color:rgb(17,49,122);stop-opacity:1"/></linearGradient>
    </defs>
</svg>
